# xmcd
#
# Track frame offsets:
#	150
#	18995
#	31860
#	44350
#	58205
#	69160
#	83120
#	98870
#	111255
#	124227
#	133977
#	147772
#
# Disc length: 2209 seconds
#
# Revision: 1
# Processed by: cddbd v1.4PL0 Copyright (c) Steve Scherf et al.
# Submitted via: audiograbber 1.80
#
DISCID=a6089f0c
DTITLE=Freud, Marx, Engels and Jung - Huomenna p‰iv‰ on uus
DYEAR=1900
DGENRE=
TTITLE0=Kipee
TTITLE1=Monenkirjava tilkkut‰kki
TTITLE2=Pappi, talonpoika, piru ja mustalainen
TTITLE3=Keltaparta
TTITLE4=J‰‰t kaipaamaan
TTITLE5=Pienet pirut
TTITLE6=Huomenna p‰iv‰ on uus
TTITLE7=It‰balttilaisnaiset II
TTITLE8=Juomalaulu II
TTITLE9=Kierros viel‰
TTITLE10=Valot
TTITLE11=Farewell
EXTD=
EXTT0=
EXTT1=
EXTT2=
EXTT3=
EXTT4=
EXTT5=
EXTT6=
EXTT7=
EXTT8=
EXTT9=
EXTT10=
EXTT11=
PLAYORDER=
